<svg width="32" height="32" viewBox="0 0 32 32" fill="none" xmlns="http://www.w3.org/2000/svg">
<path d="M29.125 0.25H2.875C2.17881 0.25 1.51113 0.526562 1.01884 1.01884C0.526562 1.51113 0.25 2.17881 0.25 2.875V29.125C0.25 29.8212 0.526562 30.4889 1.01884 30.9812C1.51113 31.4734 2.17881 31.75 2.875 31.75H29.125C29.8212 31.75 30.4889 31.4734 30.9812 30.9812C31.4734 30.4889 31.75 29.8212 31.75 29.125V2.875C31.75 2.17881 31.4734 1.51113 30.9812 1.01884C30.4889 0.526562 29.8212 0.25 29.125 0.25ZM16 5.5C16.3894 5.5 16.77 5.61546 17.0938 5.83179C17.4175 6.04812 17.6699 6.3556 17.8189 6.71534C17.9679 7.07508 18.0069 7.47093 17.9309 7.85283C17.855 8.23473 17.6674 8.58553 17.3921 8.86087C17.1168 9.1362 16.766 9.32371 16.3841 9.39967C16.0022 9.47564 15.6063 9.43665 15.2466 9.28764C14.8869 9.13863 14.5794 8.88629 14.363 8.56253C14.1467 8.23877 14.0312 7.85813 14.0312 7.46875C14.0312 6.94661 14.2387 6.44585 14.6079 6.07663C14.9771 5.70742 15.4779 5.5 16 5.5ZM21.25 26.6641H10.75V23.7109H14.5234V16.1641H12.0625V13.2109H17.4766V23.7109H21.25V26.6641Z" fill="#FFCF00"/>
</svg>
