<svg width="36" height="34" viewBox="0 0 36 34" fill="none" xmlns="http://www.w3.org/2000/svg">
<path d="M33.75 0.25H21.5C20.2043 0.254389 18.9566 0.740989 18 1.615C17.0434 0.740989 15.7957 0.254389 14.5 0.25H2.25C1.78587 0.25 1.34075 0.434374 1.01256 0.762563C0.684374 1.09075 0.5 1.53587 0.5 2V28.25C0.5 28.7141 0.684374 29.1593 1.01256 29.4874C1.34075 29.8156 1.78587 30 2.25 30H12.3265C13.2543 30.0021 14.1437 30.3707 14.801 31.0255L16.7628 32.9873C16.7785 33.003 16.7995 33.0083 16.8153 33.024C16.9657 33.164 17.1337 33.2865 17.3298 33.367H17.3333C17.7602 33.5438 18.2398 33.5438 18.6667 33.367H18.6702C18.8663 33.2865 19.0343 33.1623 19.1847 33.024C19.2005 33.0083 19.2215 33.003 19.2372 32.9873L21.199 31.0255C21.8563 30.3707 22.7457 30.0021 23.6735 30H33.75C34.2141 30 34.6592 29.8156 34.9874 29.4874C35.3156 29.1593 35.5 28.7141 35.5 28.25V2C35.5 1.53587 35.3156 1.09075 34.9874 0.762563C34.6592 0.434374 34.2141 0.25 33.75 0.25ZM32 26.5H23.6735C22.275 26.504 20.9094 26.9237 19.75 27.7057V5.5C19.75 4.53575 20.534 3.75 21.5 3.75H32V26.5Z" fill="#FFCF00"/>
</svg>
