<svg width="35" height="31" viewBox="0 0 35 31" fill="none" xmlns="http://www.w3.org/2000/svg">
<path d="M4.39844 0.875C3.34793 0.875 2.34045 1.29231 1.59763 2.03513C0.854812 2.77795 0.4375 3.78543 0.4375 4.83594V26.1641C0.4375 26.6842 0.539953 27.1993 0.739008 27.6798C0.938064 28.1604 1.22982 28.5971 1.59763 28.9649C1.96544 29.3327 2.40209 29.6244 2.88265 29.8235C3.36322 30.0225 3.87828 30.125 4.39844 30.125H30.6016C31.1217 30.125 31.6368 30.0225 32.1173 29.8235C32.5979 29.6244 33.0346 29.3327 33.4024 28.9649C33.7702 28.5971 34.0619 28.1604 34.261 27.6798C34.46 27.1993 34.5625 26.6842 34.5625 26.1641V4.83594C34.5625 3.78543 34.1452 2.77795 33.4024 2.03513C32.6595 1.29231 31.6521 0.875 30.6016 0.875H4.39844ZM19.9375 11.8438C19.9375 11.5205 20.0659 11.2105 20.2945 10.982C20.523 10.7534 20.833 10.625 21.1562 10.625H28.4688C28.792 10.625 29.102 10.7534 29.3305 10.982C29.5591 11.2105 29.6875 11.5205 29.6875 11.8438C29.6875 12.167 29.5591 12.477 29.3305 12.7055C29.102 12.9341 28.792 13.0625 28.4688 13.0625H21.1562C20.833 13.0625 20.523 12.9341 20.2945 12.7055C20.0659 12.477 19.9375 12.167 19.9375 11.8438ZM21.1562 16.7188H28.4688C28.792 16.7188 29.102 16.8472 29.3305 17.0757C29.5591 17.3043 29.6875 17.6143 29.6875 17.9375C29.6875 18.2607 29.5591 18.5707 29.3305 18.7993C29.102 19.0278 28.792 19.1562 28.4688 19.1562H21.1562C20.833 19.1562 20.523 19.0278 20.2945 18.7993C20.0659 18.5707 19.9375 18.2607 19.9375 17.9375C19.9375 17.6143 20.0659 17.3043 20.2945 17.0757C20.523 16.8472 20.833 16.7188 21.1562 16.7188ZM13.8438 11.8438C13.8438 12.4902 13.5869 13.1102 13.1298 13.5673C12.6727 14.0244 12.0527 14.2812 11.4062 14.2812C10.7598 14.2812 10.1398 14.0244 9.68268 13.5673C9.22556 13.1102 8.96875 12.4902 8.96875 11.8438C8.96875 11.1973 9.22556 10.5773 9.68268 10.1202C10.1398 9.66306 10.7598 9.40625 11.4062 9.40625C12.0527 9.40625 12.6727 9.66306 13.1298 10.1202C13.5869 10.5773 13.8438 11.1973 13.8438 11.8438ZM6.53125 17.3281C6.53125 16.8433 6.72386 16.3783 7.0667 16.0354C7.40953 15.6926 7.87453 15.5 8.35938 15.5H14.4531C14.938 15.5 15.403 15.6926 15.7458 16.0354C16.0886 16.3783 16.2812 16.8433 16.2812 17.3281C16.2812 17.3281 16.2812 21.5938 11.4062 21.5938C6.53125 21.5938 6.53125 17.3281 6.53125 17.3281Z" fill="#FFCF00"/>
</svg>
