<svg width="73" height="73" viewBox="0 0 73 73" fill="none" xmlns="http://www.w3.org/2000/svg">
<path d="M13.3294 0C5.94548 0 0 5.94114 0 13.3196V59.6271C0 67.0056 5.94548 72.9467 13.3294 72.9467H38.446V44.4291H30.8996V34.1619H38.446V25.39C38.446 18.4984 42.9047 12.1707 53.176 12.1707C57.3346 12.1707 60.4098 12.5697 60.4098 12.5697L60.168 22.1576C60.168 22.1576 57.0317 22.128 53.6094 22.128C49.9054 22.128 49.3115 23.8333 49.3115 26.6644V34.1619H60.4622L59.9764 44.4292H49.3115V72.9468H59.6706C67.0545 72.9468 73 67.0056 73 59.6272V13.3197C73 5.94121 67.0545 7.29466e-05 59.6706 7.29466e-05L13.3294 0Z" fill="#FFCF00"/>
</svg>
