<svg width="40" height="26" viewBox="0 0 40 26" fill="none" xmlns="http://www.w3.org/2000/svg">
<path d="M37.3333 15.1667C36.1367 15.1667 35.1667 14.1967 35.1667 13C35.1667 11.8034 36.1367 10.8334 37.3333 10.8334C38.53 10.8334 39.5 11.8034 39.5 13C39.5 14.1967 38.53 15.1667 37.3333 15.1667Z" fill="#FFCF00"/>
<path d="M2.53665 10.8334H28.7966C29.9215 10.8334 30.8333 11.7452 30.8333 12.87V13.13C30.8333 14.2549 29.9215 15.1667 28.7966 15.1667H2.53665C1.41183 15.1667 0.499979 14.2549 0.499979 13.13V12.87C0.499979 11.7452 1.41183 10.8334 2.53665 10.8334Z" fill="#FFCF00"/>
<path d="M2.53667 21.6666H37.4633C38.5882 21.6666 39.5 22.5785 39.5 23.7033V23.9633C39.5 25.0881 38.5882 26 37.4633 26H2.53667C1.41185 26 0.5 25.0881 0.5 23.9633V23.7033C0.5 22.5785 1.41185 21.6666 2.53667 21.6666Z" fill="#FFCF00"/>
<path d="M2.53667 0H37.4633C38.5882 0 39.5 0.911847 39.5 2.03667V2.29667C39.5 3.42149 38.5882 4.33333 37.4633 4.33333H2.53667C1.41185 4.33333 0.5 3.42149 0.5 2.29667V2.03667C0.5 0.911847 1.41185 0 2.53667 0Z" fill="#FFCF00"/>
</svg>
