<svg width="73" height="73" viewBox="0 0 73 73" fill="none" xmlns="http://www.w3.org/2000/svg">
<path d="M71.6589 57.1411L55.0015 42.0069C54.2141 41.2917 53.1794 40.9103 52.1159 40.9432C51.0523 40.976 50.0432 41.4206 49.3015 42.1829L39.4955 52.2601C37.1352 51.8097 32.39 50.3315 27.5054 45.4628C22.6209 40.5778 21.1416 35.8238 20.7031 33.4816L30.7795 23.6787C31.5434 22.9381 31.9889 21.9295 32.0218 20.8665C32.0547 19.8034 31.6724 18.7693 30.9557 17.9829L15.8145 1.34182C15.0975 0.552992 14.1011 0.0745096 13.0368 0.0079921C11.9725 -0.0585254 10.9242 0.292162 10.1145 0.985576L1.22229 8.60592C0.513833 9.31642 0.0909768 10.262 0.0339376 11.2634C-0.027529 12.2871 -1.19949 36.5363 17.6175 55.3476C34.0332 71.7471 54.5958 72.9468 60.2589 72.9468C61.0867 72.9468 61.5948 72.9223 61.73 72.9141C62.732 72.858 63.6778 72.4336 64.3854 71.7225L72.0073 62.8328C72.7039 62.0263 73.0575 60.9795 72.9924 59.9161C72.9273 58.8527 72.4488 57.8568 71.6589 57.1411Z" fill="#FFCF00"/>
</svg>
