<svg width="62" height="60" viewBox="0 0 62 60" fill="none" xmlns="http://www.w3.org/2000/svg">
<path d="M61.2346 26.8086H12.0954L41.5067 1.27734C41.977 0.86582 41.6915 0.101562 41.07 0.101562H33.6374C33.3098 0.101562 32.9991 0.21914 32.7555 0.429101L1.01784 27.9676C0.727155 28.2195 0.494031 28.531 0.334258 28.881C0.174485 29.2309 0.0917969 29.6111 0.0917969 29.9958C0.0917969 30.3805 0.174485 30.7607 0.334258 31.1106C0.494031 31.4606 0.727155 31.7721 1.01784 32.024L32.9403 59.7305C33.0663 59.8396 33.2174 59.8984 33.377 59.8984H41.0616C41.6831 59.8984 41.9686 59.1258 41.4983 58.7227L12.0954 33.1914H61.2346C61.6042 33.1914 61.9065 32.8891 61.9065 32.5195V27.4805C61.9065 27.1109 61.6042 26.8086 61.2346 26.8086Z" fill="white"/>
</svg>
